<svg width="16" height="18" viewBox="0 0 16 18" fill="none" xmlns="http://www.w3.org/2000/svg">
<g clip-path="url(#clip0_4_23)">
<path d="M15.4195 9.79448C15.859 9.35503 15.859 8.64136 15.4195 8.2019L9.79453 2.5769C9.35508 2.13745 8.64141 2.13745 8.20195 2.5769C7.7625 3.01636 7.7625 3.73003 8.20195 4.16948L11.9109 7.87495H1.125C0.502734 7.87495 0 8.37769 0 8.99995C0 9.62222 0.502734 10.125 1.125 10.125H11.9074L8.20547 13.8304C7.76602 14.2699 7.76602 14.9835 8.20547 15.423C8.64492 15.8625 9.35859 15.8625 9.79805 15.423L15.423 9.798L15.4195 9.79448Z" fill="white"/>
</g>
<defs>
<clipPath id="clip0_4_23">
<rect width="15.75" height="18" fill="white"/>
</clipPath>
</defs>
</svg>
